<?xml version="1.0" encoding="utf-8"?>
<!-- Generator: Adobe Illustrator 23.1.1, SVG Export Plug-In . SVG Version: 6.00 Build 0)  -->
<svg version="1.1" id="Layer_1" xmlns="http://www.w3.org/2000/svg" xmlns:xlink="http://www.w3.org/1999/xlink" x="0px" y="0px"
	 viewBox="0 0 512 512" style="enable-background:new 0 0 512 512;" xml:space="preserve">
<style type="text/css">
	.st0{fill:#FFFFFF;stroke:#FFFFFF;stroke-width:28;stroke-miterlimit:10;}
	.st1{fill:#FFFFFF;stroke:#000000;stroke-width:28;stroke-miterlimit:10;}
</style>
<path d="M335.4,284.9c0,43.9-35.6,79.4-79.4,79.4s-79.4-35.6-79.4-79.4s35.6-79.4,79.4-79.4C299.8,205.5,335.4,241,335.4,284.9z"/>
<path d="M443.7,111.6h-79.4l-11.2-29.7c-6.3-16.9-22.5-28.1-40.5-28.1H199.3c-18,0-34.2,11.2-40.5,28.1l-11.1,29.7H68.3
	C44.4,111.6,25,131,25,154.9v259.9c0,23.9,19.4,43.3,43.3,43.3h375.4c23.9,0,43.3-19.4,43.3-43.3V154.9
	C487,131,467.6,111.6,443.7,111.6z M256,393.2c-59.8,0-108.3-48.5-108.3-108.3S196.2,176.6,256,176.6s108.3,48.5,108.3,108.3
	C364.2,344.7,315.8,393.1,256,393.2z"/>
<line class="st0" x1="38.2" y1="15.2" x2="485.4" y2="462.4"/>
<line class="st1" x1="38.2" y1="39.2" x2="485.4" y2="486.4"/>
</svg>
